<svg xmlns="http://www.w3.org/2000/svg" xmlns:xlink="http://www.w3.org/1999/xlink" width="1024" zoomAndPan="magnify" viewBox="0 0 768 767.999994" height="1024" preserveAspectRatio="xMidYMid meet" version="1.0"><defs><clipPath id="eb171593a8"><path d="M 118 14.53125 L 651 14.53125 L 651 752 L 118 752 Z M 118 14.53125 " clip-rule="nonzero"/></clipPath></defs><g clip-path="url(#eb171593a8)"><path fill="#dbdbdb" d="M 233.273438 340.46875 C 233.714844 340.511719 234.132812 340.429688 234.53125 340.230469 C 234.925781 340.027344 235.238281 339.738281 235.46875 339.355469 C 235.699219 338.972656 235.8125 338.558594 235.8125 338.113281 C 235.808594 337.664062 235.6875 337.25 235.449219 336.871094 C 210.199219 296 189.535156 253.320312 180.109375 206.949219 C 178.136719 197.285156 176.871094 186.589844 176.304688 174.863281 C 175.867188 165.667969 177.472656 157.410156 177.609375 148.511719 C 177.609375 147.898438 177.734375 147.3125 177.976562 146.746094 C 178.527344 145.414062 178.933594 144 179.191406 142.503906 C 181.347656 130.332031 185.914062 118.535156 192.886719 107.117188 C 198.3125 98.246094 205.882812 90.519531 215.589844 83.929688 C 228.664062 75.078125 243.324219 69.640625 259.578125 67.625 C 266.734375 66.75 272.398438 68.863281 279.09375 68.976562 C 279.675781 68.992188 280.164062 69.210938 280.5625 69.640625 C 281.25 70.40625 282.167969 70.765625 283.3125 70.71875 C 284.371094 70.671875 285.386719 70.828125 286.363281 71.179688 C 322.140625 84.457031 347.1875 117.804688 363.195312 151.769531 C 363.453125 152.335938 363.867188 152.769531 364.433594 153.074219 C 365.011719 153.414062 365.5625 153.375 366.082031 152.960938 C 366.664062 152.503906 366.941406 151.90625 366.910156 151.171875 C 366.390625 134.550781 367.152344 116.472656 369.203125 96.933594 C 370.273438 86.78125 372.078125 77.253906 374.613281 68.355469 C 382.273438 41.617188 399.542969 25.8125 427.523438 19.09375 C 440.398438 15.992188 452.539062 14.5625 463.945312 14.804688 C 468.253906 14.921875 471.71875 16.433594 475.914062 16.59375 C 477.566406 16.671875 479.226562 16.992188 480.890625 17.558594 C 493.519531 21.808594 503.457031 28.03125 510.707031 36.226562 C 530.980469 59.113281 538.296875 90.167969 544.761719 120.417969 C 553.1875 159.878906 561.246094 201.566406 568.9375 245.476562 C 569.121094 246.5 569.164062 247.550781 569.074219 248.621094 C 568.996094 249.703125 569.25 250.660156 569.832031 251.484375 C 571.183594 253.367188 571.023438 256.601562 571.023438 258.824219 C 571.023438 259.605469 571.246094 260.316406 571.6875 260.957031 C 573.292969 263.273438 572.511719 265.890625 572.996094 268.550781 C 575.871094 283.914062 578.507812 299.152344 580.90625 314.257812 C 581.550781 318.179688 583.199219 320.976562 582.46875 325.265625 C 582.328125 326.058594 582.496094 326.785156 582.972656 327.445312 C 584.148438 329.019531 584.53125 330.800781 584.117188 332.789062 C 584.046875 333.136719 584.042969 333.488281 584.109375 333.835938 C 584.171875 334.1875 584.300781 334.515625 584.496094 334.816406 C 584.6875 335.117188 584.929688 335.371094 585.222656 335.582031 C 585.511719 335.789062 585.832031 335.9375 586.183594 336.019531 C 602.074219 339.898438 617.144531 359.988281 624.574219 374.574219 C 638.378906 401.726562 646.476562 430.417969 648.859375 460.644531 C 649.425781 467.738281 649.921875 475.023438 650.351562 482.5 C 650.613281 487.242188 650.550781 491.75 650.167969 496.03125 C 649.785156 500.464844 649.519531 504.96875 649.367188 509.539062 C 648.847656 524.753906 646.109375 541.503906 641.15625 559.789062 C 626.355469 614.433594 596.753906 659.738281 552.355469 695.695312 C 506.140625 733.125 453.027344 753.445312 393.582031 751.039062 C 391.179688 750.945312 388.878906 750.640625 386.679688 750.121094 C 383.765625 749.433594 380.851562 749.707031 377.847656 749.316406 C 343.570312 744.777344 312.257812 734.164062 283.910156 717.484375 C 280.273438 715.34375 276.386719 713.882812 272.261719 713.105469 C 252.582031 709.402344 233.640625 700.933594 215.429688 687.691406 C 167.085938 652.582031 134.585938 593.59375 121.859375 536.328125 C 121.445312 534.449219 122.042969 532.316406 121.171875 530.527344 C 118.898438 525.9375 120.503906 521.328125 119.402344 516.46875 C 117.476562 508.027344 119.359375 501.238281 119.792969 492.914062 C 119.902344 490.863281 120.214844 488.808594 120.734375 486.746094 C 121.253906 484.664062 121.8125 482.632812 122.410156 480.644531 C 131.285156 450.875 155.546875 438.859375 184.492188 435.578125 C 185.300781 435.488281 185.769531 435.035156 185.890625 434.226562 C 186.273438 431.761719 185.996094 429.425781 185.066406 427.207031 C 183.480469 423.46875 184.171875 419.433594 183.070312 415.304688 C 181.488281 409.457031 182.265625 402.644531 182.21875 396.542969 C 182.199219 392.921875 184.078125 390.238281 184.007812 386.773438 C 183.980469 385.492188 184.132812 384.199219 184.46875 382.898438 C 190.523438 360.238281 204.839844 346.144531 227.421875 340.609375 C 229.417969 340.125 231.253906 340.285156 233.273438 340.46875 Z M 405.597656 268.136719 C 405.355469 269.878906 404.851562 269.957031 404.085938 268.367188 C 401.347656 262.585938 398.3125 256.90625 394.980469 251.324219 C 390.277344 243.414062 385.851562 235.273438 381.542969 227.222656 C 377.046875 218.828125 371.542969 211.558594 367.484375 202.796875 C 367 201.742188 366.082031 200.984375 365.488281 199.929688 C 354.554688 180.773438 343.976562 163.257812 333.746094 147.386719 C 329.984375 141.5625 327.117188 135.441406 322.117188 130.441406 C 321.582031 129.90625 321.214844 129.253906 321.019531 128.492188 C 320.773438 127.542969 320.261719 126.769531 319.480469 126.175781 C 314.710938 122.457031 312.992188 117.253906 308.199219 113.722656 C 305.324219 111.609375 302.546875 109.46875 299.871094 107.300781 C 295.226562 103.570312 289.101562 100.210938 281.503906 97.230469 C 279.371094 96.40625 277.257812 96.886719 275.449219 95.488281 C 274.746094 94.9375 273.941406 94.671875 273.039062 94.683594 C 268.207031 94.792969 263.0625 94.761719 257.605469 94.59375 C 253.570312 94.480469 250.082031 96.796875 246.230469 97.757812 C 243.417969 98.460938 240.792969 99.554688 238.363281 101.039062 C 235.917969 102.535156 233.492188 104.171875 231.09375 105.945312 C 229.074219 107.429688 227.078125 108.90625 225.109375 110.371094 C 213.703125 118.902344 205.660156 129.851562 200.980469 143.214844 C 199.71875 146.835938 200.707031 150.117188 199.421875 153.398438 C 197.722656 157.6875 197.703125 169.199219 199.238281 173.53125 C 200.1875 176.253906 200.460938 179.042969 200.0625 181.902344 C 199.894531 183.082031 200.140625 184.160156 200.796875 185.136719 C 201.792969 186.636719 202.121094 188.378906 201.785156 190.367188 C 201.660156 191.175781 201.753906 191.957031 202.058594 192.707031 C 203.28125 195.671875 204.328125 198.859375 205.199219 202.269531 C 207.371094 210.753906 210.894531 220.945312 215.773438 232.839844 C 216.851562 235.476562 218.890625 238 219.488281 240.636719 C 219.933594 242.535156 220.574219 244.332031 221.414062 246.027344 C 227.421875 258.066406 232.699219 270.339844 239.003906 282.378906 C 252.277344 307.652344 266.320312 332.472656 281.136719 356.84375 C 281.6875 357.761719 281.425781 358.167969 280.355469 358.0625 C 275.386719 357.554688 269.8125 357.371094 263.636719 357.511719 C 262.886719 357.527344 262.191406 357.726562 261.550781 358.105469 C 259.730469 359.175781 257.789062 359.519531 255.722656 359.140625 C 254.683594 358.941406 253.765625 359.183594 252.972656 359.871094 C 251.070312 361.457031 248.546875 360.746094 246 361.890625 C 239.945312 364.613281 234.410156 367.457031 229.394531 370.421875 C 216.53125 378.035156 204.285156 392.1875 203.273438 407.714844 C 203.160156 409.640625 201.714844 410.351562 201.714844 412.367188 C 201.652344 420.839844 201.675781 429.269531 201.785156 437.664062 C 201.796875 438.367188 201.960938 439.042969 202.265625 439.683594 C 203.566406 442.328125 203.886719 445.242188 203.226562 448.421875 C 203.074219 449.230469 202.585938 449.613281 201.761719 449.566406 C 199.117188 449.460938 196.570312 449.730469 194.125 450.371094 C 191.828125 450.96875 189.519531 451.394531 187.199219 451.65625 C 176.648438 452.878906 166.386719 457 156.417969 464.015625 C 145.894531 471.449219 141.214844 483.234375 139.816406 495.847656 C 138.699219 505.910156 138.738281 514.410156 139.929688 521.351562 C 140.265625 523.371094 140.550781 525.375 140.777344 527.359375 C 140.929688 528.722656 141.136719 530.074219 141.398438 531.421875 C 147.515625 563.480469 160.332031 592.59375 179.859375 618.753906 C 181.441406 620.863281 183.320312 622.398438 184.582031 624.691406 C 186.761719 628.636719 190.523438 630.839844 192.886719 634.648438 C 196.097656 639.808594 201.714844 644.300781 206.003906 648.660156 C 208.496094 651.199219 211.054688 653.484375 213.6875 655.515625 C 216.390625 657.625 219.152344 659.84375 221.964844 662.167969 C 230.449219 669.171875 239.746094 675.371094 249.851562 680.765625 C 260.195312 686.269531 271.617188 689.597656 282.808594 692.761719 C 284.414062 693.21875 285.242188 692.394531 286.867188 693.496094 C 295.828125 699.535156 305.199219 704.65625 314.984375 708.863281 C 322.433594 712.058594 329.933594 715.039062 337.484375 717.804688 C 341.679688 719.320312 345.992188 719.824219 349.984375 721.957031 C 350.75 722.355469 351.558594 722.484375 352.414062 722.347656 C 353.515625 722.164062 354.515625 722.316406 355.417969 722.804688 C 356.429688 723.355469 357.550781 723.746094 358.789062 723.976562 C 363.253906 724.769531 367.765625 725.640625 372.320312 726.589844 C 375.371094 727.230469 378.46875 726.476562 381.105469 728.101562 C 381.824219 728.5625 382.613281 728.792969 383.46875 728.792969 C 388.269531 728.792969 393.039062 728.785156 397.777344 728.769531 C 400.050781 728.769531 401.058594 730.578125 403.511719 730.558594 C 407.992188 730.511719 412.25 730.496094 416.285156 730.511719 C 417.050781 730.511719 417.722656 730.265625 418.304688 729.777344 C 419.105469 729.136719 419.816406 728.835938 420.875 728.8125 C 426.285156 728.769531 432.9375 729.570312 438.027344 727.714844 C 439.878906 727.054688 441.804688 726.835938 443.808594 727.046875 C 444.726562 727.15625 445.589844 726.996094 446.398438 726.566406 C 449.265625 725.074219 453.394531 725.257812 456.71875 724.363281 C 518.800781 707.738281 568.707031 661.871094 599.4375 605.589844 C 610.292969 585.710938 618 564.765625 622.554688 542.75 C 622.785156 541.617188 623.207031 540.570312 623.816406 539.609375 C 624.335938 538.796875 624.503906 537.917969 624.320312 536.96875 C 623.894531 534.785156 624.269531 532.871094 625.445312 531.238281 C 626.011719 530.457031 626.234375 529.59375 626.109375 528.644531 C 625.773438 525.984375 625.933594 523.324219 626.59375 520.664062 C 628.769531 512.0625 626.59375 502.914062 628.542969 494.058594 C 629.230469 490.847656 629.261719 487.632812 628.632812 484.40625 C 626.890625 475.691406 628.542969 467.203125 626.59375 458.535156 C 625.980469 455.859375 625.796875 453.167969 626.042969 450.460938 C 626.101562 449.683594 625.902344 448.972656 625.445312 448.328125 C 622.832031 444.707031 625.859375 441.105469 623.382812 437.894531 C 623.046875 437.453125 622.832031 436.949219 622.738281 436.382812 C 622.144531 432.621094 621.210938 428.628906 619.941406 424.410156 C 614.253906 405.574219 607.785156 390.445312 600.539062 379.023438 C 592.511719 366.410156 582.367188 356.179688 570.105469 348.335938 C 569.324219 347.832031 568.476562 347.601562 567.558594 347.648438 C 565.601562 347.757812 564.339844 346.847656 563.777344 344.917969 C 562.261719 339.675781 561.597656 335.011719 561.78125 330.929688 C 561.8125 330.179688 561.660156 329.460938 561.320312 328.773438 C 559.992188 325.960938 559.617188 322.933594 560.199219 319.691406 C 560.367188 318.804688 560.222656 317.980469 559.761719 317.214844 C 558.277344 314.738281 557.882812 312 558.570312 309.003906 C 558.769531 308.195312 558.691406 307.40625 558.339844 306.644531 L 556.941406 303.660156 C 556.589844 302.898438 556.484375 302.101562 556.621094 301.277344 C 557.019531 298.875 556.636719 296.566406 555.472656 294.351562 C 555.121094 293.675781 554.945312 292.964844 554.945312 292.21875 C 554.898438 289.097656 555.496094 286.277344 554.050781 283.339844 C 552.46875 280.085938 553.660156 276.644531 552.789062 272.929688 C 551.246094 266.308594 550.367188 259.703125 550.152344 253.113281 C 550.136719 252.351562 549.945312 251.625 549.578125 250.9375 C 547.605469 247.359375 549.96875 243.34375 547.585938 240.523438 C 546.925781 239.757812 546.675781 238.878906 546.828125 237.886719 C 547.269531 235.027344 546.882812 232.359375 545.65625 229.882812 C 545.167969 228.890625 545.007812 227.847656 545.175781 226.761719 C 545.632812 223.902344 545.214844 221.289062 543.914062 218.917969 C 543.394531 217.957031 543.242188 216.929688 543.457031 215.847656 C 543.976562 213.261719 543.59375 211 542.308594 209.058594 C 541.773438 208.230469 541.574219 207.332031 541.714844 206.351562 C 542.035156 204.164062 541.84375 202.0625 541.140625 200.042969 C 540.453125 198.074219 540.039062 196.054688 539.902344 193.992188 C 539.566406 189.3125 538.664062 184.695312 537.195312 180.136719 C 536.964844 179.433594 536.917969 178.714844 537.058594 177.980469 C 537.484375 175.796875 537.1875 173.816406 536.164062 172.042969 C 535.78125 171.386719 535.566406 170.675781 535.519531 169.910156 C 535.199219 164.054688 534.105469 158.121094 532.242188 152.113281 C 532.011719 151.378906 531.957031 150.636719 532.082031 149.886719 C 532.371094 148.113281 531.996094 146.484375 530.957031 145.003906 C 530.46875 144.300781 530.285156 143.527344 530.40625 142.6875 C 530.695312 140.410156 530.285156 138.367188 529.167969 136.5625 C 528.738281 135.890625 528.5625 135.15625 528.640625 134.363281 C 528.824219 132.207031 528.410156 130.132812 527.402344 128.144531 C 527.003906 127.382812 526.90625 126.578125 527.105469 125.738281 C 527.472656 124.132812 527.1875 122.65625 526.253906 121.3125 C 525.75 120.578125 525.5 119.757812 525.5 118.859375 L 525.523438 116.703125 C 525.535156 115.847656 525.261719 115.089844 524.695312 114.433594 C 524.054688 113.683594 523.769531 112.8125 523.847656 111.816406 C 523.910156 110.945312 523.785156 110.027344 523.480469 109.066406 C 519.152344 95.71875 515.238281 85.082031 511.738281 77.164062 C 507.929688 68.523438 502.488281 59.796875 495.410156 50.972656 C 493 47.945312 490.683594 47.167969 487.910156 44.757812 C 484.269531 41.609375 478.851562 38.847656 471.648438 36.480469 C 469.402344 35.746094 467.613281 36.15625 465.710938 35.242188 C 464.242188 34.535156 462.597656 34.15625 460.777344 34.09375 C 439.105469 33.359375 418.648438 37.671875 405.78125 55.078125 C 398.765625 64.558594 394.269531 75.589844 392.296875 88.171875 C 391.953125 90.328125 390.460938 91.359375 390.828125 93.8125 C 391.425781 97.757812 389.0625 100.234375 389.15625 104.019531 C 389.246094 108.636719 389.253906 113.261719 389.179688 117.894531 C 389.132812 120.417969 387.367188 121.5625 387.433594 124.292969 C 387.542969 129.523438 387.558594 134.558594 387.480469 139.40625 C 387.464844 140.203125 387.648438 140.945312 388.03125 141.632812 C 388.75 142.929688 389.117188 143.949219 389.132812 144.683594 C 389.207031 152.386719 389.222656 160.046875 389.179688 167.660156 C 389.179688 168.472656 389.382812 169.230469 389.796875 169.933594 C 390.699219 171.445312 391.050781 173.058594 390.851562 174.773438 C 390.378906 179.007812 390.84375 182.890625 392.25 186.421875 C 392.585938 187.261719 392.6875 188.132812 392.550781 189.035156 C 392 192.949219 392.433594 196.496094 393.855469 199.679688 C 394.179688 200.382812 394.316406 201.121094 394.269531 201.902344 C 394.191406 203.707031 394.476562 206.605469 395.117188 210.59375 C 397.550781 225.746094 400.347656 241.171875 403.511719 256.875 C 403.773438 258.160156 403.949219 259.4375 404.039062 260.707031 C 404.246094 263.503906 406.011719 265.132812 405.597656 268.136719 Z M 405.597656 268.136719 " fill-opacity="1" fill-rule="nonzero"/></g><path fill="#dbdbdb" d="M 497.082031 135.074219 C 512.175781 206.167969 524.605469 278.640625 534.351562 349.164062 C 534.375 349.359375 534.355469 349.554688 534.292969 349.742188 C 534.230469 349.933594 534.132812 350.101562 533.992188 350.246094 C 533.855469 350.390625 533.695312 350.496094 533.507812 350.570312 C 533.320312 350.640625 533.128906 350.667969 532.929688 350.652344 C 507.671875 348.589844 482.664062 350.386719 457.910156 356.042969 C 452.742188 357.21875 447.972656 358.984375 443.601562 361.339844 C 443.445312 361.425781 443.277344 361.46875 443.097656 361.46875 C 442.917969 361.472656 442.75 361.433594 442.589844 361.355469 C 442.429688 361.273438 442.300781 361.160156 442.195312 361.019531 C 442.089844 360.875 442.023438 360.714844 441.996094 360.539062 C 431.566406 293.25 422.777344 226.425781 415.621094 160.070312 C 413.800781 143.207031 412.90625 126.617188 412.9375 110.304688 C 412.9375 102.351562 414.414062 94.808594 417.363281 87.667969 C 424.40625 70.671875 441.628906 55.445312 460.480469 64.847656 C 483.390625 76.246094 492.0625 111.335938 497.082031 135.074219 Z M 497.082031 135.074219 " fill-opacity="1" fill-rule="nonzero"/><path fill="#dbdbdb" d="M 317.28125 165.34375 C 354.777344 227.796875 391.585938 297.765625 425.414062 364.550781 C 425.523438 364.769531 425.582031 365 425.589844 365.246094 C 425.597656 365.488281 425.554688 365.722656 425.460938 365.949219 C 425.363281 366.171875 425.226562 366.363281 425.046875 366.523438 C 424.867188 366.6875 424.660156 366.800781 424.429688 366.867188 C 398.097656 374.710938 372.09375 385.949219 352.046875 403.402344 C 351.863281 403.5625 351.65625 403.675781 351.421875 403.746094 C 351.1875 403.8125 350.949219 403.828125 350.707031 403.789062 C 350.464844 403.753906 350.242188 403.664062 350.042969 403.53125 C 349.839844 403.394531 349.675781 403.222656 349.546875 403.011719 C 328.679688 368.59375 307.058594 331.550781 284.691406 291.875 C 270.640625 266.964844 257.390625 241.632812 244.945312 215.871094 C 234.738281 194.722656 224.03125 172.292969 234.648438 148.742188 C 238.667969 139.8125 244.785156 133.542969 252.996094 129.933594 C 279.117188 118.421875 305.539062 145.78125 317.28125 165.34375 Z M 317.28125 165.34375 " fill-opacity="1" fill-rule="nonzero"/><path fill="#dbdbdb" d="M 523.023438 469.957031 C 524.457031 468.03125 524.046875 467.464844 521.785156 468.257812 C 484.1875 481.484375 445.253906 487.546875 404.980469 486.445312 C 391.496094 486.054688 377.230469 483.855469 366.3125 476.242188 C 344.847656 461.265625 346.269531 437.230469 361.957031 419.15625 C 371.050781 408.699219 382.703125 400.910156 396.90625 395.789062 C 431.1875 383.417969 460.273438 374.726562 484.171875 369.710938 C 535.636719 358.933594 585.082031 368.199219 597.375 427.667969 C 602.328125 451.539062 602.417969 477.433594 599.988281 501.515625 C 593.726562 563.734375 566.113281 623.660156 518.296875 663.382812 C 508.296875 671.683594 496.15625 679.023438 481.878906 685.398438 C 443.027344 702.785156 397.753906 706.5 356.933594 694.480469 C 342.5625 690.246094 328.984375 684.671875 316.203125 677.761719 C 316.113281 677.714844 316.03125 677.652344 315.957031 677.582031 C 315.882812 677.511719 315.820312 677.433594 315.769531 677.34375 C 315.714844 677.257812 315.675781 677.164062 315.648438 677.066406 C 315.617188 676.96875 315.601562 676.867188 315.601562 676.765625 C 315.597656 676.664062 315.609375 676.5625 315.632812 676.464844 C 315.65625 676.367188 315.691406 676.269531 315.742188 676.183594 C 315.789062 676.09375 315.851562 676.011719 315.921875 675.9375 C 315.992188 675.863281 316.070312 675.796875 316.15625 675.746094 C 342.597656 659.554688 353.652344 632.054688 344.871094 601.277344 C 344.816406 601.089844 344.8125 600.902344 344.855469 600.714844 C 344.898438 600.527344 344.984375 600.359375 345.109375 600.214844 C 345.238281 600.070312 345.390625 599.960938 345.570312 599.894531 C 345.753906 599.828125 345.9375 599.804688 346.128906 599.832031 C 373.949219 603.984375 402.113281 600.933594 409.40625 568.710938 C 413.582031 550.289062 414.8125 530.878906 413.097656 510.480469 C 413.070312 510.140625 413.109375 509.808594 413.21875 509.480469 C 413.328125 509.15625 413.496094 508.867188 413.722656 508.613281 C 413.949219 508.355469 414.21875 508.15625 414.527344 508.011719 C 414.839844 507.863281 415.164062 507.785156 415.507812 507.773438 C 433.671875 507.238281 450.933594 505.863281 467.292969 503.648438 C 469.1875 503.386719 469.394531 503.867188 467.910156 505.089844 C 443.492188 525.058594 429.742188 551.136719 426.652344 583.320312 C 426.039062 589.742188 425.683594 596.1875 425.574219 602.652344 C 425.558594 603.417969 425.925781 603.867188 426.675781 604.007812 C 426.996094 604.066406 427.308594 603.890625 427.617188 603.480469 C 427.753906 603.28125 427.851562 603.058594 427.914062 602.8125 C 441.398438 545.90625 472.628906 502.058594 521.601562 471.265625 C 522.148438 470.914062 522.625 470.476562 523.023438 469.957031 Z M 523.023438 469.957031 " fill-opacity="1" fill-rule="nonzero"/><path fill="#dbdbdb" d="M 234.417969 409.410156 C 242.859375 392.691406 270.585938 380.167969 288.085938 380.949219 C 305.789062 381.746094 321.117188 389.359375 334.066406 403.792969 C 334.496094 404.269531 334.777344 404.820312 334.917969 405.441406 C 335.054688 406.0625 335.03125 406.675781 334.847656 407.277344 C 320.742188 454.382812 347.140625 493.257812 391.5625 507.5 C 392.335938 507.742188 393.023438 508.128906 393.628906 508.671875 C 394.234375 509.210938 394.699219 509.851562 395.027344 510.597656 C 400.042969 521.832031 402.449219 533.238281 402.25 544.8125 C 401.953125 561.1875 392.984375 579.558594 376.105469 583.960938 C 357.851562 588.710938 334.59375 580.820312 320.398438 570.15625 C 313.578125 565.050781 305.125 556.570312 295.035156 544.722656 C 270.128906 515.503906 248.957031 486.8125 235.976562 453.789062 C 230.957031 440.96875 228.066406 422.046875 234.417969 409.410156 Z M 234.417969 409.410156 " fill-opacity="1" fill-rule="nonzero"/><path fill="#dbdbdb" d="M 260.355469 653.957031 C 249.53125 650.011719 239.878906 641.183594 231.460938 633.085938 C 207.699219 610.222656 184.214844 581.164062 173.117188 550.476562 C 165.984375 530.777344 165.664062 504.519531 179.011719 487.113281 C 187.558594 475.980469 199.335938 471.109375 214.351562 472.503906 C 217.125 472.777344 219.832031 473.671875 221.371094 476.195312 C 242.023438 510.136719 264.476562 540.3125 288.726562 566.714844 C 300.546875 579.574219 313.015625 590.132812 326.132812 598.386719 C 327.785156 599.441406 329.007812 600.957031 329.800781 602.929688 C 336.015625 618.339844 338.125 636.871094 324.503906 648.5 C 308.863281 661.847656 277.992188 660.378906 260.355469 653.957031 Z M 260.355469 653.957031 " fill-opacity="1" fill-rule="nonzero"/></svg>